# xmcd
#
# Track frame offsets:
#	150
#	24096
#	45542
#	66197
#	81966
#	102693
#	123998
#	142110
#	162368
#	188173
#	206901
#	228369
#
# Disc length: 3270 seconds
#
# Revision: 0
# Processed by: cddbd v1.5.2PL0 Copyright (c) Steve Scherf et al.
# Submitted via: audiograbber 1.83.01
#
DISCID=a80cc40c
DTITLE=Lionel Lodge - Definitely Schrägged
DYEAR=2007
DGENRE=Country
TTITLE0=Dancing With The Moon
TTITLE1=Swept Away
TTITLE2=Outa Sight Outa Sound
TTITLE3=From Above
TTITLE4=Her Peace Again
TTITLE5=Some Other Wanna Be
TTITLE6=Toxi Dwarf
TTITLE7=Sorry
TTITLE8=Friends
TTITLE9=Hey There My Friend
TTITLE10=The Greatest Thrill Of Them All
TTITLE11=There's Nothing Wrong With You
EXTD=
EXTT0=
EXTT1=
EXTT2=
EXTT3=
EXTT4=
EXTT5=
EXTT6=
EXTT7=
EXTT8=
EXTT9=
EXTT10=
EXTT11=
PLAYORDER=
